<svg id="Layer_1" data-name="Layer 1" xmlns="http://www.w3.org/2000/svg" viewBox="0 0 105.28 113.61"><defs><style>.cls-1{fill:#1c75bc;}.cls-2{fill:#f8b323;}.cls-3{fill:#72bf44;}</style></defs><path class="cls-1" d="M268.94,253.76l-8.61-5H237.86l-8.61,5c8.24,14.3,32.85,37.72,59.53,39.74C279.48,288.3,264.69,269.6,268.94,253.76Z" transform="translate(-183.5 -179.89)"/><path class="cls-2" d="M275,179.89c.14,10.65-8.66,32.82-24.51,37.06v9.93l-.17-.29,11.41,19.75,8.59,5C278.62,237,286.59,204,275,179.89Z" transform="translate(-183.5 -179.89)"/><path class="cls-3" d="M183.5,248.62c9.16-5.45,32.75-8.91,44.34,2.7l8.61-5-.18.29,11.41-19.75V217C231.18,216.93,198.59,226.53,183.5,248.62Z" transform="translate(-183.5 -179.89)"/><path class="cls-1" d="M243.83,240.67a5.27,5.27,0,1,1,5.27,5.27A5.26,5.26,0,0,1,243.83,240.67Z" transform="translate(-183.5 -179.89)"/></svg>